<svg width="96" height="31" viewBox="0 0 96 31" xmlns="http://www.w3.org/2000/svg"><title>Liseberg</title><g fill="#FF5C6F"><path d="M27.477 11.924c.347 3.366 3.136 4.21 3.136 6.486 0 2.478-1.763 3.102-3.077 3.021-1.686-.104-2.766-1.598-2.94-3.734 0 0 2.322-4.636 2.881-5.773m-7.067 9.362c-1.014 0-.447-1.768-.084-2.909l1.897-5.971c.2-.622 1.357-3.359-2.388-3.363h-4.126l-.297 1.034h.825c2.488 0 2.294.914 1.824 2.578l-1.591 5.631c-.432 1.54-.949 4.577 2.21 4.848 1.388.091 2.72-.551 3.48-1.403.948-1.063 1.531-2.251 1.639-2.448.319 2.641 2.436 4.003 4.702 4.015 2.91.015 5.993-2.3 5.993-5.655 0-3.935-3.81-5.869-2.999-8.603h-3.844s-3.676 7.355-4.55 9.112c-.5 1.004-1.517 3.135-2.689 3.135M57.268 8.752c-2.327-.01-3.899 1.594-4.424 3.455l-.534 1.793h1.129l.294-.883c.494-1.475 1.185-2.249 2.177-2.249.892 0 1.185.708.671 2.531l-1.061 3.764c-.351 1.237-1.041 4.065-3.636 4.029-1.826-.025-2.162-1.75-1.533-4.047l4.363-15.958h-3.722c-1.062 3.652-3.991 14.15-4.35 15.356-.212.713-.31 1.429-.29 2.115-.804 1.318-2.114 2.542-4.334 2.542-1.865 0-3.948-1.319-3.135-4.199l1.009-3.583c.38-1.337 1.184-2.219 2.202-2.395 1.95-.337 1.407 1.693.94 2.635-.197.397-.843 1.579-1.094 1.972-.66 1.033-1.607 1.094-1.769 1.082l-.243.859s2.672.228 4.11-1.247c1.011-1.108 1.96-2.35 2.286-3.263.479-1.342.254-2.444-.592-3.249-.854-.812-1.997-1.123-3.11-1.123-3.227 0-5.591 1.683-6.454 4.768l-.937 3.312c-.949 3.365 1.307 6.448 5.108 6.448 2.75 0 5.025-1.287 6.394-2.717.67 1.616 2.234 2.767 4.777 2.767 3.264 0 6.362-1.458 7.642-5.989.829-2.932.948-3.354 1.104-3.911.941-3.338-.658-4.604-2.987-4.613" id="Shape"/><path d="M90.022 13.997s-.431 1.839-1.119 3.944c-.464 1.42-1.64 3.064-3.232 3.1-1.844.042-1.527-2.53-1.192-3.7l.816-3.133c.64-2.372 2.167-3.259 3.677-3.14.829.066 1.699.677 1.051 2.928zm1.289-4.952l-.335 1.204c-.385-.862-1.321-1.433-2.703-1.433-2.211 0-3.716.786-4.752 1.939l.364-1.288c-.152-.123-.32-.227-.505-.299-2.348-.914-5.056.8-5.541 1.686l.51-1.812h-3.629l-2.027 7.166c-.839 2.963-2.453 4.991-5.382 4.991-1.865 0-3.948-1.319-3.135-4.199l1.009-3.583c.38-1.337 1.184-2.219 2.203-2.395 1.95-.337 1.407 1.693.94 2.635-.197.397-.843 1.579-1.094 1.972-.661 1.033-1.607 1.094-1.769 1.082l-.243.859s2.672.228 4.11-1.247c1.011-1.108 1.96-2.35 2.286-3.263.479-1.342.254-2.444-.592-3.249-.854-.812-1.997-1.123-3.11-1.123-3.227 0-5.591 1.683-6.455 4.768l-.937 3.312c-.949 3.365 1.307 6.448 5.107 6.448 2.546 0 4.381-1.005 5.671-2.089l-.501 1.772h3.652l2.305-8.147c.367-1.211 1.315-3.661 3.996-3.679.798-.005 1.506.302 1.884.93-.378.679-.657 1.415-.866 2.156l-.934 3.312c-.723 2.559.262 5.763 3.426 5.766 1.065.001 2.782-.364 3.813-2.084l-.686 2.288c-.725 2.506-1.812 3.265-3.513 3.303-2.89.066-3.367-2.386-3.367-2.386l-2.55.002c0 .753 1.092 4.435 6.104 4.433 3.205-.001 6.104-1.724 7.478-7.22l3.511-12.527-3.744.001zM25.178 27.649c-4.746 0-6.877-3.456-10.67-5.204-.616-.362-2.779-1.066-5.238-.996.897-1.484 1.692-3.207 2.153-4.841l2.198-7.789c.929-3.289 1.787-7.087 5.622-7.087 1.156 0 1.611.482 1.689.689-.879.385-1.597 1.274-1.597 2.311 0 1.388 1.104 2.514 2.466 2.514 1.067 0 2.528-.866 2.528-2.889 0-2.677-2.753-4.284-5.295-4.284-2.884 0-8.294.693-11.055 11.032-.525 1.966-1.443 5.223-2.068 6.951-.972 2.69-2.763 4.431-5.791 4.774 0 0 .744 1.748 3.067 2.487 1.333.424 3.488.11 4.846.026 5.274-.324 6.919 2.433 10.4 3.746 7.705 3.192 13.95-1.032 16.951-3.898h-2.805c-2.5 1.842-4.566 2.457-7.4 2.457"/></g></svg>